<?xml version="1.0" encoding="UTF-8" standalone="no"?>
<svg
   width="50"
   height="50"
   version="1.1"
   id="svg4"
   sodipodi:docname="logo-inkscape.svg"
   inkscape:version="1.2.2 (b0a84865, 2022-12-01)"
   xmlns:inkscape="http://www.inkscape.org/namespaces/inkscape"
   xmlns:sodipodi="http://sodipodi.sourceforge.net/DTD/sodipodi-0.dtd"
   xmlns="http://www.w3.org/2000/svg"
   xmlns:svg="http://www.w3.org/2000/svg">
  <defs
     id="defs8">
    <marker
       style="overflow:visible"
       id="Stop"
       refX="0"
       refY="0"
       orient="auto"
       inkscape:stockid="Stop"
       markerWidth="1"
       markerHeight="30"
       viewBox="0 0 1 8"
       inkscape:isstock="true"
       inkscape:collect="always"
       preserveAspectRatio="none">
      <path
         style="fill:none;stroke:context-stroke;stroke-width:1"
         d="M 0,4 V -4"
         id="path171" />
    </marker>
    <marker
       style="overflow:visible"
       id="marker1126"
       refX="0"
       refY="0"
       orient="auto-start-reverse"
       inkscape:stockid="TriangleStart"
       markerWidth="5.3244081"
       markerHeight="6.155385"
       viewBox="0 0 5.3244081 6.1553851"
       inkscape:isstock="true"
       inkscape:collect="always"
       preserveAspectRatio="xMidYMid">
      <path
         transform="scale(0.5)"
         style="fill:context-stroke;fill-rule:evenodd;stroke:context-stroke;stroke-width:1pt"
         d="M 5.77,0 -2.88,5 V -5 Z"
         id="path1124" />
    </marker>
  </defs>
  <sodipodi:namedview
     id="namedview6"
     pagecolor="#505050"
     bordercolor="#eeeeee"
     borderopacity="1"
     inkscape:showpageshadow="0"
     inkscape:pageopacity="0"
     inkscape:pagecheckerboard="0"
     inkscape:deskcolor="#505050"
     showgrid="false"
     inkscape:zoom="21.559542"
     inkscape:cx="10.621747"
     inkscape:cy="25.951386"
     inkscape:window-width="1329"
     inkscape:window-height="765"
     inkscape:window-x="0"
     inkscape:window-y="25"
     inkscape:window-maximized="0"
     inkscape:current-layer="svg4" />
  <path
     fill="#ffffff"
     stroke="#ffffff"
     stroke-linejoin="round"
     d="M 38.956,0.5 C 35.426,0.918 32.504,1.402 29.67,3.484 5.534,1.786 -0.692,18.533 0.68,29.364 3.493,50.214 31.918,55.785 41.329,41.7 33.885,49.396 22.053,50.452 13.006,44.784 3.959,39.116 -0.506,27.392 4.683,17.567 9.873,7.742 18.996,4.535 29.03,6.405 31.46,4.987 34.255,3.185 36.685,3.218 l -1.694,4.86 12.752,21.37 C 47.304,35.102 42.284,35.56 42.284,35.56 41.71,34.09 40.65,32.618 37.442,29.524 34.235,26.43 19.977,19.347 21.654,13.317 c -2.001,6.967 10.311,14.152 14.04,17.663 3.73,3.51 5.426,6.04 5.795,6.756 0,0 9.392,-2.504 7.838,-8.927 L 37.4,7.171 Z"
     id="mask"
     sodipodi:insensitive="true"
     style="display:inline"
     inkscape:label="mask" />
  <path
     style="fill:none;stroke:#2121cc;stroke-width:0.2;stroke-dasharray:none;stroke-opacity:1"
     d="m 21.771467,12.846226 c -2.946663,8.375033 16.335659,14.665643 20.98835,25.116358"
     id="segment1"
     sodipodi:nodetypes="cc"
     inkscape:label="segment1" />
  <path
     style="fill:none;stroke:#2121cc;stroke-width:0.2;stroke-dasharray:none;stroke-opacity:1"
     d="m 43.226103,36.156955 c 4.300592,-1.842241 5.615261,-4.302259 5.446721,-7.069148 L 36.446674,7.5906428 38.18499,0.05794384"
     id="path2026"
     inkscape:label="segment2-3-4"
     sodipodi:nodetypes="cc" />
  <path
     style="fill:none;stroke:#2121cc;stroke-width:0.2;stroke-dasharray:none;stroke-opacity:1"
     d="M 36.562562,1.796259 C 33.828951,2.2247295 31.488863,3.2100723 29.261638,4.8672824 20.67194,4.1865398 8.3377021,5.2569832 3.0130796,18.310253 0.55174031,24.344207 -0.39939304,35.488214 9.3869018,43.110216 19.744549,51.177213 32.889178,51.100818 41.719564,41.256013"
     id="path2054"
     sodipodi:nodetypes="ccssc"
     inkscape:label="segment5-6-7-8" />
  <path
     style="display:none;fill:none;stroke:#38eeeb;stroke-width:0.2;stroke-dasharray:none;stroke-opacity:1;marker-start:url(#Stop);marker-end:url(#marker1126)"
     d="m 21.729189,12.936118 -1.384268,5.628936"
     id="start1"
     inkscape:label="old-start1"
     sodipodi:nodetypes="cc" />
  <path
     style="display:none;fill:#000000;stroke:#38eeeb;stroke-width:0.2;stroke-dasharray:none;stroke-opacity:1;marker-start:url(#Stop);marker-end:url(#marker1126)"
     d="m 42.706384,37.792784 1.305066,3.110198"
     id="end1"
     sodipodi:nodetypes="cc"
     inkscape:label="old-end1" />
  <path
     style="display:none;fill:none;stroke:#38eeeb;stroke-width:0.2;stroke-dasharray:none;stroke-opacity:1;marker-start:url(#Stop);marker-end:url(#marker1126)"
     d="m 43.126344,36.155718 4.3252,-2.002049"
     id="path2023"
     inkscape:label="old-start2"
     sodipodi:nodetypes="cc" />
  <path
     style="fill:#000000;stroke:#38eeeb;stroke-width:0.2;stroke-dasharray:none;stroke-opacity:1;marker-start:url(#Stop);marker-end:url(#marker1126)"
     d="M 48.639719,29.121835 47.056511,24.856506"
     id="end2start3"
     sodipodi:nodetypes="cc"
     inkscape:label="end2-start3" />
  <path
     style="fill:none;stroke:#38eeeb;stroke-width:0.2;stroke-dasharray:none;stroke-opacity:1;marker-start:url(#Stop);marker-end:url(#marker1126)"
     d="M 36.456455,7.4930101 35.443537,4.4431774"
     id="path2029"
     inkscape:label="end3-start4"
     sodipodi:nodetypes="cc" />
  <path
     style="fill:none;stroke:#38eeeb;stroke-width:0.2;stroke-dasharray:none;stroke-opacity:1;marker-start:url(#Stop);marker-end:url(#marker1126)"
     d="M 38.169776,0.05292111 37.991104,-1.3729631"
     id="path2042"
     inkscape:label="end4"
     sodipodi:nodetypes="cc" />
  <path
     style="fill:none;stroke:#38eeeb;stroke-width:0.2;stroke-dasharray:none;stroke-opacity:1;marker-start:url(#Stop);marker-end:url(#marker1126)"
     d="M 36.678413,1.7308541 33.23727,0.48618948"
     id="path2044"
     inkscape:label="start5"
     sodipodi:nodetypes="cc" />
  <path
     style="fill:none;stroke:#38eeeb;stroke-width:0.2;stroke-dasharray:none;stroke-opacity:1;marker-start:url(#Stop);marker-end:url(#marker1126)"
     d="M 29.269209,4.8974187 25.137727,4.5021129"
     id="path2046"
     inkscape:label="end5-start6"
     sodipodi:nodetypes="cc" />
  <path
     style="display:none;fill:none;stroke:#38eeeb;stroke-width:0.2;stroke-dasharray:none;stroke-opacity:1;marker-start:url(#Stop);marker-end:url(#marker1126)"
     d="M 3.0306226,18.310216 1.6427374,21.401331"
     id="path2048"
     inkscape:label="old-end6-start7"
     sodipodi:nodetypes="cc" />
  <path
     style="display:none;fill:none;stroke:#38eeeb;stroke-width:0.2;stroke-dasharray:none;stroke-opacity:1;marker-start:url(#Stop);marker-end:url(#marker1126)"
     d="m 9.4849189,43.020167 2.8672531,2.470078"
     id="path2050"
     inkscape:label="old-end7-start8"
     sodipodi:nodetypes="cc" />
  <path
     style="display:none;fill:none;stroke:#38eeeb;stroke-width:0.2;stroke-dasharray:none;stroke-opacity:1;marker-start:url(#Stop);marker-end:url(#marker1126)"
     d="m 41.435879,41.557801 3.348905,-4.244367"
     id="path2052"
     inkscape:label="old-end8"
     sodipodi:nodetypes="cc" />
  <path
     style="display:inline;fill:#ff0000;fill-opacity:0.359307;stroke:#ff0000;stroke-width:0.2;stroke-opacity:1"
     d="M 44.498677,39.028391 31.559345,11.782156 19.146003,8.4158255 14.832892,21.565553 39.869973,40.185567"
     id="path855"
     sodipodi:nodetypes="ccccc"
     inkscape:label="envelope1" />
  <path
     style="display:inline;fill:#ff0000;fill-opacity:0.359307;stroke:#ff0000;stroke-width:0.2;stroke-opacity:1"
     d="m 45.835768,28.823294 -3.855345,6.058399 1.897075,3.855345 L 55.9331,35.98322 50.486661,27.171003"
     id="path1009"
     inkscape:label="envelope2"
     sodipodi:nodetypes="ccccc" />
  <path
     style="display:inline;fill:#ff0000;fill-opacity:0.359307;stroke:#ff0000;stroke-width:0.2;stroke-opacity:1"
     d="M 33.229402,8.2614536 46.508924,30.53678 51.037424,28.762098 38.737038,6.2419871"
     id="path1011"
     inkscape:label="envelope3"
     sodipodi:nodetypes="cccc" />
  <path
     style="display:inline;fill:#ff0000;fill-opacity:0.359307;stroke:#ff0000;stroke-width:0.2;stroke-opacity:1"
     d="M 41.001288,-0.97913521 39.226605,7.2211224 33.805581,9.8672041 37.597974,-0.94339571"
     id="path1013"
     inkscape:label="envelope4"
     sodipodi:nodetypes="cccc" />
  <path
     style="display:inline;fill:#ff0000;fill-opacity:0.359307;stroke:#ff0000;stroke-width:0.2;stroke-opacity:1"
     d="m 28.700902,0.61195952 9.118197,-0.97913523 -1.407507,4.89567621 -8.01667,4.0389328"
     id="path1015"
     inkscape:label="envelope5"
     sodipodi:nodetypes="cccc" />
  <path
     style="display:inline;fill:#ff0000;fill-opacity:0.359307;stroke:#ff0000;stroke-width:0.2;stroke-opacity:1"
     d="M 5.3852438,20.133468 29.986017,8.3226495 30.414388,1.7746826 2.509034,1.346311 -0.30597976,17.746826"
     id="path1017"
     sodipodi:nodetypes="ccccc"
     inkscape:label="envelope6" />
  <path
     style="display:inline;fill:#ff0000;fill-opacity:0.359307;stroke:#ff0000;stroke-width:0.2;stroke-opacity:1"
     d="M 11.627231,41.735639 5.9360074,18.970745 1.0403312,16.706495 -6.7315548,32.372659 8.6286293,45.590984"
     id="path1019"
     inkscape:label="envelope7"
     sodipodi:nodetypes="ccccc" />
  <path
     style="display:inline;fill:#ff0000;fill-opacity:0.359307;stroke:#ff0000;stroke-width:0.2;stroke-opacity:1"
     d="M 40.940092,39.960957 10.525704,41.001288 7.1599264,44.979025 25.824692,58.380938 43.632714,42.102815"
     id="path1021"
     inkscape:label="envelope8"
     sodipodi:nodetypes="ccccc" />
</svg>
